<?xml version="1.0" encoding="UTF-8" standalone="no"?>
<!-- Created with Inkscape (http://www.inkscape.org/) -->

<svg
   xmlns:osb="http://www.openswatchbook.org/uri/2009/osb"
   xmlns:dc="http://purl.org/dc/elements/1.1/"
   xmlns:cc="http://creativecommons.org/ns#"
   xmlns:rdf="http://www.w3.org/1999/02/22-rdf-syntax-ns#"
   xmlns:svg="http://www.w3.org/2000/svg"
   xmlns="http://www.w3.org/2000/svg"
   xmlns:xlink="http://www.w3.org/1999/xlink"
   xmlns:sodipodi="http://sodipodi.sourceforge.net/DTD/sodipodi-0.dtd"
   xmlns:inkscape="http://www.inkscape.org/namespaces/inkscape"
   width="144.49777mm"
   height="144.49779mm"
   viewBox="0 0 512 512.00003"
   id="svg2"
   version="1.1"
   inkscape:version="0.91 r13725"
   sodipodi:docname="logo.svg">
  <defs
     id="defs4">
    <linearGradient
       inkscape:collect="always"
       id="linearGradient6216">
      <stop
         style="stop-color:#814545;stop-opacity:1;"
         offset="0"
         id="stop6218" />
      <stop
         style="stop-color:#814545;stop-opacity:0;"
         offset="1"
         id="stop6220" />
    </linearGradient>
    <linearGradient
       id="linearGradient4775"
       osb:paint="solid">
      <stop
         style="stop-color:#000000;stop-opacity:1;"
         offset="0"
         id="stop4777" />
    </linearGradient>
    <clipPath
       clipPathUnits="userSpaceOnUse"
       id="clipPath4755">
      <ellipse
         style="opacity:0.17000002;fill:#814545;fill-opacity:1"
         id="ellipse4757"
         cx="248.21358"
         cy="229.43579"
         rx="372.96686"
         ry="344.35049" />
    </clipPath>
    <linearGradient
       inkscape:collect="always"
       xlink:href="#linearGradient6216"
       id="linearGradient6224"
       x1="-630.35938"
       y1="217.93442"
       x2="-446.62891"
       y2="217.93442"
       gradientUnits="userSpaceOnUse" />
  </defs>
  <sodipodi:namedview
     id="base"
     pagecolor="#ffffff"
     bordercolor="#666666"
     borderopacity="1.0"
     inkscape:pageopacity="0.0"
     inkscape:pageshadow="2"
     inkscape:zoom="0.24748737"
     inkscape:cx="565.06445"
     inkscape:cy="-521.89049"
     inkscape:document-units="px"
     inkscape:current-layer="g4228"
     showgrid="false"
     fit-margin-top="0"
     fit-margin-left="0"
     fit-margin-right="0"
     fit-margin-bottom="0"
     inkscape:window-width="1859"
     inkscape:window-height="1056"
     inkscape:window-x="61"
     inkscape:window-y="24"
     inkscape:window-maximized="1" />
  <metadata
     id="metadata7">
    <rdf:RDF>
      <cc:Work
         rdf:about="">
        <dc:format>image/svg+xml</dc:format>
        <dc:type
           rdf:resource="http://purl.org/dc/dcmitype/StillImage" />
        <dc:title></dc:title>
      </cc:Work>
    </rdf:RDF>
  </metadata>
  <g
     inkscape:label="Capa 1"
     inkscape:groupmode="layer"
     id="layer1"
     transform="translate(527.88949,1869.1651)">
    <g
       id="g4244"
       transform="matrix(1.4520089,0,0,1.4520089,-1458.8572,-915.06633)" />
    <g
       id="g4246"
       transform="matrix(1.4520089,0,0,1.4520089,-1458.8572,-915.06633)" />
    <g
       id="g4248"
       transform="matrix(1.4520089,0,0,1.4520089,-1458.8572,-915.06633)" />
    <g
       id="g4250"
       transform="matrix(1.4520089,0,0,1.4520089,-1458.8572,-915.06633)" />
    <g
       id="g4252"
       transform="matrix(1.4520089,0,0,1.4520089,-1458.8572,-915.06633)" />
    <g
       id="g4254"
       transform="matrix(1.4520089,0,0,1.4520089,-1458.8572,-915.06633)" />
    <g
       id="g4256"
       transform="matrix(1.4520089,0,0,1.4520089,-1458.8572,-915.06633)" />
    <g
       id="g4258"
       transform="matrix(1.4520089,0,0,1.4520089,-1458.8572,-915.06633)" />
    <g
       id="g4260"
       transform="matrix(1.4520089,0,0,1.4520089,-1458.8572,-915.06633)" />
    <g
       id="g4262"
       transform="matrix(1.4520089,0,0,1.4520089,-1458.8572,-915.06633)" />
    <g
       id="g4264"
       transform="matrix(1.4520089,0,0,1.4520089,-1458.8572,-915.06633)" />
    <g
       id="g4266"
       transform="matrix(1.4520089,0,0,1.4520089,-1458.8572,-915.06633)" />
    <g
       id="g4268"
       transform="matrix(1.4520089,0,0,1.4520089,-1458.8572,-915.06633)" />
    <g
       id="g4270"
       transform="matrix(1.4520089,0,0,1.4520089,-1458.8572,-915.06633)" />
    <g
       id="g4272"
       transform="matrix(1.4520089,0,0,1.4520089,-1458.8572,-915.06633)" />
    <g
       id="g4228"
       transform="matrix(1.5703862,0,0,1.5703862,-1519.4664,-915.06633)"
       style="fill:#464647;fill-opacity:1">
      <g
         id="g4359"
         transform="matrix(0.63678603,0,0,0.63678603,631.42233,-607.55674)"
         style="fill:#ffffff;fill-opacity:1">
        <g
           id="g4307"
           style="fill:#ffffff;fill-opacity:1">
          <g
             id="g4309"
             style="fill:#ffffff;fill-opacity:1">
            <g
               id="g4311"
               style="fill:#ffffff;fill-opacity:1">
              <polygon
                 id="polygon4313"
                 points="170.667,0 0,0 0,42.667 21.333,42.667 21.333,234.667 149.333,234.667 149.333,42.667 170.667,42.667 "
                 style="fill:#ffffff;fill-opacity:1" />
              <path
                 id="path4315"
                 d="m 469.333,42.667 0,21.333 -42.667,0 c -82.475,0 -149.333,66.859 -149.333,149.333 l 0,21.333 128,0 0,-21.333 c 0,-11.782 9.551,-21.333 21.333,-21.333 l 42.667,0 0,21.333 42.667,0 0,-170.666 -42.667,0 z"
                 inkscape:connector-curvature="0"
                 style="fill:#ffffff;fill-opacity:1" />
              <path
                 id="path4317"
                 d="m 256,298.667 21.333,0 0,42.667 c 0,11.782 -9.551,21.333 -21.333,21.333 l 0,128 c 82.475,0 149.333,-66.859 149.333,-149.333 l 0,-42.667 21.333,0 0,-42.667 -170.666,0 0,42.667 z"
                 inkscape:connector-curvature="0"
                 style="fill:#ffffff;fill-opacity:1" />
              <rect
                 id="rect4319"
                 height="170.66701"
                 width="42.667"
                 y="341.33301"
                 x="192"
                 style="fill:#ffffff;fill-opacity:1" />
              <path
                 id="path4321"
                 d="m 0,298.667 21.333,0 0,42.667 c 0,82.475 66.859,149.333 149.333,149.333 l 0,-128 c -11.782,0 -21.333,-9.551 -21.333,-21.333 l 0,-42.667 21.333,0 0,-42.667 L 0,256 0,298.667 Z"
                 inkscape:connector-curvature="0"
                 style="fill:#ffffff;fill-opacity:1" />
            </g>
          </g>
        </g>
        <g
           id="g4323"
           style="fill:#ffffff;fill-opacity:1" />
        <g
           id="g4325"
           style="fill:#ffffff;fill-opacity:1" />
        <g
           id="g4327"
           style="fill:#ffffff;fill-opacity:1" />
        <g
           id="g4329"
           style="fill:#ffffff;fill-opacity:1" />
        <g
           id="g4331"
           style="fill:#ffffff;fill-opacity:1" />
        <g
           id="g4333"
           style="fill:#ffffff;fill-opacity:1" />
        <g
           id="g4335"
           style="fill:#ffffff;fill-opacity:1" />
        <g
           id="g4337"
           style="fill:#ffffff;fill-opacity:1" />
        <g
           id="g4339"
           style="fill:#ffffff;fill-opacity:1" />
        <g
           id="g4341"
           style="fill:#ffffff;fill-opacity:1" />
        <g
           id="g4343"
           style="fill:#ffffff;fill-opacity:1" />
        <g
           id="g4345"
           style="fill:#ffffff;fill-opacity:1" />
        <g
           id="g4347"
           style="fill:#ffffff;fill-opacity:1" />
        <g
           id="g4349"
           style="fill:#ffffff;fill-opacity:1" />
        <g
           id="g4351"
           style="fill:#ffffff;fill-opacity:1" />
      </g>
    </g>
  </g>
</svg>
